<svg width="35" height="25" viewBox="0 0 35 25" fill="none" xmlns="http://www.w3.org/2000/svg">
<rect x="0.5" y="0.5" width="34" height="23.3478" rx="3.30435" fill="white" stroke="#D0D5DD"/>
<path fill-rule="evenodd" clip-rule="evenodd" d="M8.34622 9.06241C8.81626 9.10264 9.2863 8.82106 9.58008 8.46406C9.86896 8.09701 10.0599 7.60425 10.011 7.10144C9.59477 7.12155 9.08066 7.38302 8.78689 7.75007C8.51759 8.06684 8.28747 8.57971 8.34622 9.06241ZM13.938 15.5386V7.69977H16.8023C18.281 7.69977 19.3141 8.74562 19.3141 10.2742C19.3141 11.8027 18.2614 12.8586 16.7631 12.8586H15.1229V15.5386H13.938ZM10.006 9.15795C9.5919 9.13347 9.21406 9.28584 8.90886 9.4089C8.71246 9.4881 8.54614 9.55517 8.41961 9.55517C8.27762 9.55517 8.10444 9.48452 7.90999 9.40519C7.65521 9.30125 7.36392 9.18241 7.05845 9.18812C6.35829 9.19817 5.70709 9.60545 5.34966 10.2541C4.61522 11.5513 5.1587 13.4721 5.86866 14.528C6.2163 15.0509 6.63248 15.6241 7.18086 15.604C7.42211 15.5947 7.59566 15.519 7.77526 15.4408C7.98203 15.3507 8.19683 15.2571 8.53223 15.2571C8.85599 15.2571 9.0614 15.3482 9.25858 15.4357C9.44606 15.5189 9.62611 15.5989 9.89339 15.594C10.4614 15.5839 10.8188 15.071 11.1664 14.5481C11.5416 13.9869 11.7064 13.4391 11.7314 13.356L11.7344 13.3464C11.7338 13.3458 11.7291 13.3436 11.721 13.3397C11.5956 13.2808 10.637 12.8301 10.6278 11.6217C10.6186 10.6074 11.3881 10.0935 11.5093 10.0126L11.5093 10.0126L11.5094 10.0126C11.5167 10.0077 11.5216 10.0044 11.5238 10.0027C11.0342 9.25851 10.2704 9.17806 10.006 9.15795ZM21.4777 15.5989C22.222 15.5989 22.9123 15.2118 23.2257 14.5983H23.2502V15.5386H24.3469V11.6368C24.3469 10.5055 23.4656 9.77637 22.1093 9.77637C20.851 9.77637 19.9207 10.5155 19.8864 11.5312H20.9538C21.042 11.0485 21.4777 10.7317 22.0751 10.7317C22.7997 10.7317 23.2061 11.0787 23.2061 11.7172V12.1496L21.7274 12.2402C20.3516 12.3256 19.6074 12.9039 19.6074 13.9095C19.6074 14.9252 20.3761 15.5989 21.4777 15.5989ZM21.7959 14.6688C21.1643 14.6688 20.7628 14.357 20.7628 13.8793C20.7628 13.3866 21.1496 13.1 21.8889 13.0547L23.206 12.9692V13.4117C23.206 14.1458 22.5989 14.6688 21.7959 14.6688ZM27.9848 15.8454C27.5099 17.218 26.9664 17.6706 25.8109 17.6706C25.7227 17.6706 25.429 17.6605 25.3604 17.6404V16.7001C25.4338 16.7102 25.615 16.7203 25.708 16.7203C26.2319 16.7203 26.5257 16.494 26.7069 15.9057L26.8146 15.5588L24.8071 9.85184H26.0459L27.4413 14.4827H27.4658L28.8612 9.85184H30.0657L27.9848 15.8454ZM15.1224 8.72553H16.4884C17.5167 8.72553 18.1042 9.28868 18.1042 10.2792C18.1042 11.2698 17.5167 11.8379 16.4836 11.8379H15.1224V8.72553Z" fill="black"/>
</svg>
