<svg width="698" height="180" viewBox="0 0 698 180" fill="none" xmlns="http://www.w3.org/2000/svg">
<mask id="mask0_0_306" style="mask-type:alpha" maskUnits="userSpaceOnUse" x="0" y="0" width="698" height="180">
<rect width="698" height="180" rx="8" fill="#4A56DA"/>
</mask>
<g mask="url(#mask0_0_306)">
<rect x="605.681" y="63" width="113.52" height="113.52" rx="56.7602" transform="rotate(39.8103 605.681 63)" fill="#DBDDF8"/>
<g clip-path="url(#clip0_0_306)">
<path d="M587.761 135.286L593.845 126.525C601.004 116.353 616.363 112.807 629.166 123.477C641.969 134.148 641.247 149.894 632.531 158.769L625.009 166.332" stroke="#313B6B" stroke-width="4.0543" stroke-linecap="round" stroke-linejoin="round"/>
<path d="M590.295 131.884C588.969 133.617 587.629 135.407 586.358 137.3C585.088 139.193 583.939 141.112 582.839 142.993C580.594 146.849 581.687 149.471 585.132 151.765C588.578 154.059 591.429 154.063 594.148 150.522C595.472 148.788 596.813 146.998 598.083 145.106C599.353 143.213 600.503 141.294 601.603 139.412C603.848 135.556 602.755 132.934 599.309 130.64C595.864 128.346 593.013 128.343 590.295 131.884Z" fill="#B6C0F3"/>
<path d="M627.898 163.226C626.432 164.843 624.913 166.483 623.28 168.074C621.647 169.664 619.966 171.141 618.314 172.561C614.925 175.464 612.149 174.861 609.272 171.885C606.395 168.909 605.877 166.106 608.87 162.794C610.338 161.179 611.857 159.537 613.49 157.947C615.122 156.357 616.803 154.88 618.456 153.459C621.844 150.556 624.62 151.159 627.497 154.135C630.374 157.111 630.891 159.914 627.898 163.226Z" fill="#B6C0F3"/>
<path d="M590.295 131.884C588.969 133.617 587.629 135.407 586.358 137.3C585.088 139.193 583.939 141.112 582.839 142.993C580.594 146.849 581.687 149.471 585.132 151.765C588.578 154.059 591.429 154.063 594.148 150.522C595.472 148.788 596.813 146.998 598.083 145.106C599.353 143.213 600.503 141.294 601.603 139.412C603.848 135.556 602.755 132.934 599.309 130.64C595.864 128.346 593.013 128.343 590.295 131.884Z" stroke="#313B6B" stroke-width="4.0543" stroke-linecap="round" stroke-linejoin="round"/>
<path d="M627.898 163.226C626.432 164.843 624.913 166.483 623.28 168.074C621.647 169.664 619.966 171.141 618.314 172.561C614.925 175.464 612.149 174.861 609.272 171.885C606.395 168.909 605.877 166.106 608.87 162.794C610.338 161.179 611.857 159.537 613.49 157.947C615.122 156.357 616.803 154.88 618.456 153.459C621.844 150.556 624.62 151.159 627.497 154.135C630.374 157.111 630.891 159.914 627.898 163.226Z" stroke="#313B6B" stroke-width="4.0543" stroke-linecap="round" stroke-linejoin="round"/>
</g>
<rect x="162" y="-5.29443" width="95.0681" height="95.0681" rx="47.534" transform="rotate(-29.4251 162 -5.29443)" fill="#E4EAF8"/>
<g clip-path="url(#clip1_0_306)">
<path d="M213.284 30.1998L208.23 22.8343C202.39 14.2081 204.173 1.12822 216.33 -5.72892C228.487 -12.5861 240.603 -7.34583 244.965 2.11409L248.654 10.2496" stroke="#313B6B" stroke-width="3.39529" stroke-linecap="round" stroke-linejoin="round"/>
<path d="M211.372 27.2052C212.335 28.7583 213.339 30.339 214.444 31.8956C215.549 33.4522 216.711 34.9223 217.858 36.3422C220.211 39.245 222.588 39.1674 225.407 37.1503C228.227 35.1331 229.077 32.9024 227.111 29.7219C226.146 28.1698 225.143 26.5886 224.038 25.032C222.933 23.4754 221.771 22.0053 220.624 20.5855C218.271 17.6828 215.894 17.7602 213.075 19.7772C210.255 21.7942 209.407 24.0251 211.372 27.2052Z" fill="#B6C0F3"/>
<path d="M247.079 7.06497C247.91 8.69302 248.743 10.3699 249.504 12.1207C250.265 13.8717 250.922 15.6261 251.544 17.3422C252.811 20.8574 251.515 22.8519 248.33 24.2213C245.145 25.5909 242.797 25.1641 241.091 21.8368C240.262 20.208 239.428 18.5315 238.668 16.7806C237.907 15.0297 237.25 13.2752 236.628 11.5593C235.361 8.04416 236.657 6.04955 239.841 4.68013C243.026 3.31068 245.374 3.73831 247.079 7.06497Z" fill="#B6C0F3"/>
<path d="M211.372 27.2052C212.335 28.7583 213.339 30.339 214.444 31.8956C215.549 33.4522 216.711 34.9223 217.858 36.3422C220.211 39.245 222.588 39.1674 225.407 37.1503C228.227 35.1331 229.077 32.9024 227.111 29.7219C226.146 28.1698 225.143 26.5886 224.038 25.032C222.933 23.4754 221.771 22.0053 220.624 20.5855C218.271 17.6828 215.894 17.7602 213.075 19.7772C210.255 21.7942 209.407 24.0251 211.372 27.2052Z" stroke="#313B6B" stroke-width="3.39529" stroke-linecap="round" stroke-linejoin="round"/>
<path d="M247.079 7.06497C247.91 8.69302 248.743 10.3699 249.504 12.1207C250.265 13.8717 250.922 15.6261 251.544 17.3422C252.811 20.8574 251.515 22.8519 248.33 24.2213C245.145 25.5909 242.797 25.1641 241.091 21.8368C240.262 20.208 239.428 18.5315 238.668 16.7806C237.907 15.0297 237.25 13.2752 236.628 11.5593C235.361 8.04416 236.657 6.04955 239.841 4.68013C243.026 3.31068 245.374 3.73831 247.079 7.06497Z" stroke="#313B6B" stroke-width="3.39529" stroke-linecap="round" stroke-linejoin="round"/>
</g>
<rect x="414" y="103.023" width="78.9974" height="78.9974" rx="39.4987" transform="rotate(-23.9138 414 103.023)" fill="#E4EAF8"/>
<g clip-path="url(#clip2_0_306)">
<path d="M453.585 136.473L449.992 129.978C445.85 122.377 448.369 111.701 458.972 106.999C469.574 102.298 479.177 107.599 482.03 115.772L484.432 122.795" stroke="#313B6B" stroke-width="2.82134" stroke-linecap="round" stroke-linejoin="round"/>
<path d="M452.243 133.844C452.916 135.206 453.62 136.593 454.41 137.969C455.199 139.345 456.043 140.653 456.878 141.919C458.593 144.508 460.565 144.634 463.058 143.19C465.551 141.747 466.432 139.97 465.06 137.182C464.386 135.821 463.682 134.433 462.892 133.058C462.103 131.682 461.259 130.373 460.424 129.107C458.71 126.519 456.737 126.393 454.244 127.836C451.751 129.28 450.871 131.057 452.243 133.844Z" fill="#B6C0F3"/>
<path d="M483.384 120.035C483.941 121.448 484.497 122.902 484.986 124.411C485.476 125.92 485.879 127.423 486.257 128.892C487.024 131.901 485.793 133.447 483.05 134.325C480.306 135.204 478.398 134.664 477.253 131.776C476.697 130.362 476.141 128.909 475.651 127.4C475.162 125.891 474.758 124.388 474.381 122.919C473.614 119.91 474.845 118.364 477.588 117.485C480.331 116.607 482.239 117.148 483.384 120.035Z" fill="#B6C0F3"/>
<path d="M452.243 133.844C452.916 135.206 453.62 136.593 454.41 137.969C455.199 139.345 456.043 140.653 456.878 141.919C458.593 144.508 460.565 144.634 463.058 143.19C465.551 141.747 466.432 139.97 465.06 137.182C464.386 135.821 463.682 134.433 462.892 133.058C462.103 131.682 461.259 130.373 460.424 129.107C458.71 126.519 456.737 126.393 454.244 127.836C451.751 129.28 450.871 131.057 452.243 133.844Z" stroke="#313B6B" stroke-width="2.82134" stroke-linecap="round" stroke-linejoin="round"/>
<path d="M483.384 120.035C483.941 121.448 484.497 122.902 484.986 124.411C485.476 125.92 485.879 127.423 486.257 128.892C487.024 131.901 485.793 133.447 483.05 134.325C480.306 135.204 478.398 134.664 477.253 131.776C476.697 130.362 476.141 128.909 475.651 127.4C475.162 125.891 474.758 124.388 474.381 122.919C473.614 119.91 474.845 118.364 477.588 117.485C480.331 116.607 482.239 117.148 483.384 120.035Z" stroke="#313B6B" stroke-width="2.82134" stroke-linecap="round" stroke-linejoin="round"/>
</g>
<rect x="589" y="-6.97746" width="78.9974" height="78.9974" rx="39.4987" transform="rotate(-23.9138 589 -6.97746)" fill="#E4EAF8"/>
<g clip-path="url(#clip3_0_306)">
<path d="M628.585 26.4735L624.992 19.978C620.85 12.3771 623.369 1.70084 633.972 -3.0006C644.574 -7.70204 654.177 -2.40083 657.03 5.7717L659.432 12.7951" stroke="#313B6B" stroke-width="2.82134" stroke-linecap="round" stroke-linejoin="round"/>
<path d="M627.243 23.8444C627.916 25.2058 628.62 26.5933 629.41 27.9691C630.199 29.3447 631.043 30.6534 631.878 31.9193C633.593 34.508 635.565 34.6336 638.058 33.1902C640.551 31.7468 641.432 29.9696 640.06 27.182C639.386 25.8213 638.682 24.4334 637.892 23.0577C637.103 21.682 636.259 20.3734 635.424 19.1075C633.71 16.5188 631.737 16.3931 629.244 17.8364C626.751 19.2798 625.871 21.0572 627.243 23.8444Z" fill="#B6C0F3"/>
<path d="M658.384 10.0354C658.941 11.4483 659.497 12.9018 659.986 14.4106C660.476 15.9196 660.879 17.4231 661.257 18.8922C662.024 21.9008 660.793 23.447 658.05 24.3255C655.306 25.2041 653.398 24.6637 652.253 21.7756C651.697 20.3622 651.141 18.9089 650.651 17.4001C650.162 15.8912 649.758 14.3875 649.381 12.9187C648.614 9.91009 649.845 8.36374 652.588 7.48523C655.331 6.60669 657.239 7.14778 658.384 10.0354Z" fill="#B6C0F3"/>
<path d="M627.243 23.8444C627.916 25.2058 628.62 26.5933 629.41 27.9691C630.199 29.3447 631.043 30.6534 631.878 31.9193C633.593 34.508 635.565 34.6336 638.058 33.1902C640.551 31.7468 641.432 29.9696 640.06 27.182C639.386 25.8213 638.682 24.4334 637.892 23.0577C637.103 21.682 636.259 20.3734 635.424 19.1075C633.71 16.5188 631.737 16.3931 629.244 17.8364C626.751 19.2798 625.871 21.0572 627.243 23.8444Z" stroke="#313B6B" stroke-width="2.82134" stroke-linecap="round" stroke-linejoin="round"/>
<path d="M658.384 10.0354C658.941 11.4483 659.497 12.9018 659.986 14.4106C660.476 15.9196 660.879 17.4231 661.257 18.8922C662.024 21.9008 660.793 23.447 658.05 24.3255C655.306 25.2041 653.398 24.6637 652.253 21.7756C651.697 20.3622 651.141 18.9089 650.651 17.4001C650.162 15.8912 649.758 14.3875 649.381 12.9187C648.614 9.91009 649.845 8.36374 652.588 7.48523C655.331 6.60669 657.239 7.14778 658.384 10.0354Z" stroke="#313B6B" stroke-width="2.82134" stroke-linecap="round" stroke-linejoin="round"/>
</g>
<rect x="359" y="6.02254" width="78.9974" height="78.9974" rx="39.4987" transform="rotate(-23.9138 359 6.02254)" fill="#DBDDF8"/>
<g clip-path="url(#clip4_0_306)">
<path d="M398.585 39.4735L394.992 32.978C390.85 25.3771 393.369 14.7008 403.972 9.9994C414.574 5.29796 424.177 10.5992 427.03 18.7717L429.432 25.7951" stroke="#313B6B" stroke-width="2.82134" stroke-linecap="round" stroke-linejoin="round"/>
<path d="M397.243 36.8444C397.916 38.2058 398.62 39.5933 399.41 40.9691C400.199 42.3447 401.043 43.6534 401.878 44.9193C403.593 47.508 405.565 47.6336 408.058 46.1902C410.551 44.7468 411.432 42.9696 410.06 40.182C409.386 38.8213 408.682 37.4334 407.892 36.0577C407.103 34.682 406.259 33.3734 405.424 32.1075C403.71 29.5188 401.737 29.3931 399.244 30.8364C396.751 32.2798 395.871 34.0572 397.243 36.8444Z" fill="#B6C0F3"/>
<path d="M428.384 23.0354C428.941 24.4483 429.497 25.9018 429.986 27.4106C430.476 28.9196 430.879 30.4231 431.257 31.8922C432.024 34.9008 430.793 36.447 428.05 37.3255C425.306 38.2041 423.398 37.6637 422.253 34.7756C421.697 33.3622 421.141 31.9089 420.651 30.4001C420.162 28.8912 419.758 27.3875 419.381 25.9187C418.614 22.9101 419.845 21.3637 422.588 20.4852C425.331 19.6067 427.239 20.1478 428.384 23.0354Z" fill="#B6C0F3"/>
<path d="M397.243 36.8444C397.916 38.2058 398.62 39.5933 399.41 40.9691C400.199 42.3447 401.043 43.6534 401.878 44.9193C403.593 47.508 405.565 47.6336 408.058 46.1902C410.551 44.7468 411.432 42.9696 410.06 40.182C409.386 38.8213 408.682 37.4334 407.892 36.0577C407.103 34.682 406.259 33.3734 405.424 32.1075C403.71 29.5188 401.737 29.3931 399.244 30.8364C396.751 32.2798 395.871 34.0572 397.243 36.8444Z" stroke="#313B6B" stroke-width="2.82134" stroke-linecap="round" stroke-linejoin="round"/>
<path d="M428.384 23.0354C428.941 24.4483 429.497 25.9018 429.986 27.4106C430.476 28.9196 430.879 30.4231 431.257 31.8922C432.024 34.9008 430.793 36.447 428.05 37.3255C425.306 38.2041 423.398 37.6637 422.253 34.7756C421.697 33.3622 421.141 31.9089 420.651 30.4001C420.162 28.8912 419.758 27.3875 419.381 25.9187C418.614 22.9101 419.845 21.3637 422.588 20.4852C425.331 19.6067 427.239 20.1478 428.384 23.0354Z" stroke="#313B6B" stroke-width="2.82134" stroke-linecap="round" stroke-linejoin="round"/>
</g>
<rect x="223" y="97.9511" width="138.028" height="138.028" rx="69.0138" transform="rotate(-23.9138 223 97.9511)" fill="#E4EAF8"/>
<g clip-path="url(#clip5_0_306)">
<path d="M292.164 156.399L285.887 145.05C278.65 131.769 283.051 113.115 301.576 104.9C320.102 96.6859 336.88 105.948 341.864 120.228L346.061 132.499" stroke="#313B6B" stroke-width="4.92956" stroke-linecap="round" stroke-linejoin="round"/>
<path d="M289.819 151.805C290.995 154.183 292.226 156.608 293.605 159.011C294.985 161.415 296.459 163.701 297.918 165.913C300.914 170.436 304.36 170.656 308.716 168.134C313.072 165.612 314.611 162.507 312.214 157.636C311.036 155.259 309.806 152.834 308.427 150.43C307.047 148.026 305.573 145.74 304.114 143.528C301.118 139.005 297.672 138.785 293.316 141.307C288.96 143.829 287.423 146.935 289.819 151.805Z" fill="#B6C0F3"/>
<path d="M344.231 127.678C345.204 130.146 346.175 132.686 347.03 135.322C347.885 137.959 348.591 140.586 349.25 143.153C350.591 148.409 348.44 151.111 343.646 152.646C338.853 154.181 335.518 153.237 333.518 148.191C332.547 145.721 331.575 143.182 330.72 140.546C329.865 137.909 329.16 135.282 328.5 132.715C327.159 127.459 329.31 124.757 334.104 123.222C338.897 121.687 342.231 122.632 344.231 127.678Z" fill="#B6C0F3"/>
<path d="M289.819 151.805C290.995 154.183 292.226 156.608 293.605 159.011C294.985 161.415 296.459 163.701 297.918 165.913C300.914 170.436 304.36 170.656 308.716 168.134C313.072 165.612 314.611 162.507 312.214 157.636C311.036 155.259 309.806 152.834 308.427 150.43C307.047 148.026 305.573 145.74 304.114 143.528C301.118 139.005 297.672 138.785 293.316 141.307C288.96 143.829 287.423 146.935 289.819 151.805Z" stroke="#313B6B" stroke-width="4.92956" stroke-linecap="round" stroke-linejoin="round"/>
<path d="M344.231 127.678C345.204 130.146 346.175 132.686 347.03 135.322C347.885 137.959 348.591 140.586 349.25 143.153C350.591 148.409 348.44 151.111 343.646 152.646C338.853 154.181 335.518 153.237 333.518 148.191C332.547 145.721 331.575 143.182 330.72 140.546C329.865 137.909 329.16 135.282 328.5 132.715C327.159 127.459 329.31 124.757 334.104 123.222C338.897 121.687 342.231 122.632 344.231 127.678Z" stroke="#313B6B" stroke-width="4.92956" stroke-linecap="round" stroke-linejoin="round"/>
</g>
<rect x="507.8" y="5" width="61.3559" height="61.3559" rx="30.6779" transform="rotate(12.0417 507.8 5)" fill="#E4EAF8"/>
<g clip-path="url(#clip6_0_306)">
<path d="M517.433 44.0832L518.136 38.3611C518.999 31.6936 525.451 26.1301 534.261 28.0094C543.071 29.8887 546.691 37.6008 544.757 44.0398L543.064 49.5508" stroke="#313B6B" stroke-width="2.19128" stroke-linecap="round" stroke-linejoin="round"/>
<path d="M517.788 41.8177C517.59 42.9806 517.4 44.1741 517.269 45.3992C517.138 46.6242 517.072 47.8316 517.02 49.0084C516.917 51.4177 518.1 52.3963 520.325 52.6256C522.551 52.8551 523.915 52.1394 524.324 49.7613C524.521 48.5982 524.711 47.4048 524.842 46.1797C524.973 44.9547 525.039 43.7473 525.092 42.5706C525.194 40.1612 524.011 39.1826 521.786 38.9532C519.56 38.7238 518.197 39.4399 517.788 41.8177Z" fill="#B6C0F3"/>
<path d="M543.664 47.338C543.37 48.4803 543.056 49.6475 542.676 50.8193C542.295 51.9911 541.864 53.1205 541.431 54.2162C540.541 56.4577 539.062 56.8683 536.937 56.1696C534.811 55.4708 533.858 54.2608 534.455 51.9229C534.75 50.7808 535.063 49.6135 535.444 48.4417C535.824 47.2699 536.256 46.1405 536.689 45.0449C537.578 42.8034 539.057 42.3926 541.183 43.0913C543.308 43.79 544.261 45.0004 543.664 47.338Z" fill="#B6C0F3"/>
<path d="M517.788 41.8177C517.59 42.9806 517.4 44.1741 517.269 45.3992C517.138 46.6242 517.072 47.8316 517.02 49.0084C516.917 51.4178 518.1 52.3963 520.325 52.6256C522.551 52.8551 523.915 52.1394 524.324 49.7613C524.521 48.5982 524.711 47.4048 524.842 46.1797C524.973 44.9547 525.039 43.7473 525.092 42.5706C525.194 40.1612 524.011 39.1826 521.786 38.9532C519.56 38.7238 518.197 39.4399 517.788 41.8177Z" stroke="#313B6B" stroke-width="2.19128" stroke-linecap="round" stroke-linejoin="round"/>
<path d="M543.664 47.338C543.37 48.4803 543.056 49.6475 542.676 50.8193C542.295 51.9911 541.864 53.1205 541.431 54.2162C540.541 56.4577 539.062 56.8683 536.937 56.1696C534.811 55.4708 533.858 54.2608 534.455 51.9229C534.75 50.7808 535.063 49.6135 535.444 48.4417C535.824 47.2699 536.256 46.1405 536.689 45.0449C537.578 42.8034 539.057 42.3926 541.183 43.0913C543.308 43.79 544.261 45.0004 543.664 47.338Z" stroke="#313B6B" stroke-width="2.19128" stroke-linecap="round" stroke-linejoin="round"/>
</g>
<rect x="153.8" y="74" width="61.3559" height="61.3559" rx="30.6779" transform="rotate(12.0417 153.8 74)" fill="#DBDDF8"/>
<g clip-path="url(#clip7_0_306)">
<path d="M163.433 113.083L164.136 107.361C164.999 100.694 171.451 95.1301 180.261 97.0094C189.071 98.8887 192.691 106.601 190.757 113.04L189.064 118.551" stroke="#313B6B" stroke-width="2.19128" stroke-linecap="round" stroke-linejoin="round"/>
<path d="M163.788 110.818C163.59 111.981 163.4 113.174 163.269 114.399C163.138 115.624 163.072 116.832 163.02 118.008C162.917 120.418 164.1 121.396 166.325 121.626C168.551 121.855 169.915 121.139 170.324 118.761C170.521 117.598 170.711 116.405 170.842 115.18C170.973 113.955 171.04 112.747 171.092 111.571C171.194 109.161 170.011 108.183 167.786 107.953C165.561 107.724 164.197 108.44 163.788 110.818Z" fill="#B6C0F3"/>
<path d="M189.664 116.338C189.37 117.48 189.056 118.647 188.676 119.819C188.295 120.991 187.864 122.121 187.431 123.216C186.541 125.458 185.062 125.868 182.937 125.17C180.811 124.471 179.858 123.261 180.455 120.923C180.75 119.781 181.063 118.613 181.444 117.442C181.824 116.27 182.256 115.14 182.689 114.045C183.578 111.803 185.057 111.393 187.183 112.091C189.308 112.79 190.261 114 189.664 116.338Z" fill="#B6C0F3"/>
<path d="M163.788 110.818C163.59 111.981 163.4 113.174 163.269 114.399C163.138 115.624 163.072 116.832 163.02 118.008C162.917 120.418 164.1 121.396 166.325 121.626C168.551 121.855 169.915 121.139 170.324 118.761C170.521 117.598 170.711 116.405 170.842 115.18C170.973 113.955 171.04 112.747 171.092 111.571C171.194 109.161 170.011 108.183 167.786 107.953C165.561 107.724 164.197 108.44 163.788 110.818Z" stroke="#313B6B" stroke-width="2.19128" stroke-linecap="round" stroke-linejoin="round"/>
<path d="M189.664 116.338C189.37 117.48 189.056 118.647 188.676 119.819C188.295 120.991 187.864 122.121 187.431 123.216C186.541 125.458 185.062 125.868 182.937 125.17C180.811 124.471 179.858 123.261 180.455 120.923C180.75 119.781 181.063 118.613 181.444 117.442C181.824 116.27 182.256 115.14 182.689 114.045C183.578 111.803 185.057 111.393 187.183 112.091C189.308 112.79 190.261 114 189.664 116.338Z" stroke="#313B6B" stroke-width="2.19128" stroke-linecap="round" stroke-linejoin="round"/>
</g>
</g>
<defs>
<clipPath id="clip0_0_306">
<rect width="56.7602" height="56.7602" fill="white" transform="translate(609.311 102.971) rotate(39.8103)"/>
</clipPath>
<clipPath id="clip1_0_306">
<rect width="47.534" height="47.534" fill="white" transform="translate(194.377 3.73021) rotate(-29.4251)"/>
</clipPath>
<clipPath id="clip2_0_306">
<rect width="39.4987" height="39.4987" fill="white" transform="translate(440.06 113.071) rotate(-23.9138)"/>
</clipPath>
<clipPath id="clip3_0_306">
<rect width="39.4987" height="39.4987" fill="white" transform="translate(615.06 3.07089) rotate(-23.9138)"/>
</clipPath>
<clipPath id="clip4_0_306">
<rect width="39.4987" height="39.4987" fill="white" transform="translate(385.06 16.0709) rotate(-23.9138)"/>
</clipPath>
<clipPath id="clip5_0_306">
<rect width="69.0138" height="69.0138" fill="white" transform="translate(268.532 115.508) rotate(-23.9138)"/>
</clipPath>
<clipPath id="clip6_0_306">
<rect width="30.6779" height="30.6779" fill="white" transform="translate(519.602 23.2014) rotate(12.0417)"/>
</clipPath>
<clipPath id="clip7_0_306">
<rect width="30.6779" height="30.6779" fill="white" transform="translate(165.602 92.2014) rotate(12.0417)"/>
</clipPath>
</defs>
</svg>
