<svg width="80" height="79" viewBox="0 0 80 79" fill="none" xmlns="http://www.w3.org/2000/svg">
<path d="M74.5949 57.4673L74.5049 57.4973L65.3249 60.5173L64.8749 60.6673L29.2249 72.3873L28.7549 72.5373L19.5549 75.5673L19.4949 75.5873C16.8749 76.4473 14.0449 75.0173 13.1849 72.3973L2.25489 39.1473C1.38489 36.5273 2.81489 33.6973 5.43489 32.8373L17.9849 28.7073C18.0749 28.8373 18.1749 28.9773 18.2749 29.1373C18.4549 29.4273 18.6349 29.7773 18.8849 30.2373C19.4149 31.2373 20.0649 32.4673 21.1049 33.7873C23.0449 36.2573 25.9549 37.6773 29.0749 37.6773C32.1949 37.6773 35.1049 36.2573 37.0449 33.7973C38.0849 32.4673 38.7449 31.2373 39.2649 30.2373C39.8049 29.2373 40.0549 28.7673 40.5549 28.2773C41.0549 27.7773 41.5149 27.5273 42.5249 26.9873C43.5149 26.4673 44.7449 25.8073 46.0749 24.7673C47.9949 23.2473 49.2849 21.1473 49.7549 18.7973C49.7949 18.6073 49.8249 18.4273 49.8449 18.2373L60.5349 14.7173C63.1649 13.8573 65.9849 15.2773 66.8449 17.9073L77.7849 51.1573C78.6449 53.7773 77.2149 56.6073 74.5949 57.4673Z" fill="#B6C0F3"/>
<path d="M29.2246 72.3876C25.3546 61.4676 15.1346 61.7476 10.4546 63.2876L28.7546 72.5376L29.3846 72.8576C29.3346 72.6976 29.2746 72.5376 29.2246 72.3876ZM29.2246 72.3876C25.3546 61.4676 15.1346 61.7476 10.4546 63.2876L12.7946 70.4176C13.4146 72.3076 14.7646 73.8676 16.5346 74.7676C17.4846 75.2476 18.5146 75.5176 19.5546 75.5676C20.4646 75.6076 21.3846 75.4876 22.2646 75.1976L29.3846 72.8576C29.3346 72.6976 29.2746 72.5376 29.2246 72.3876ZM64.8746 60.6676C64.9146 60.8176 64.9646 60.9776 65.0146 61.1376L65.3246 60.5176L74.5746 42.2076C69.8946 43.7476 61.5046 49.5776 64.8746 60.6676ZM76.9146 49.3276L74.5746 42.2076C69.8946 43.7476 61.5046 49.5776 64.8746 60.6676C64.9146 60.8176 64.9646 60.9776 65.0146 61.1376L72.1346 58.7976C73.0046 58.5076 73.8046 58.0776 74.5046 57.4976C75.3246 56.8476 76.0046 56.0176 76.4846 55.0576C77.3846 53.2776 77.5446 51.2176 76.9146 49.3276ZM50.9546 18.3976C54.7046 29.7976 65.1446 29.5176 69.8946 27.9576L50.9546 18.3976ZM67.5446 20.8376C66.9246 18.9476 65.5846 17.3776 63.8046 16.4776C62.0246 15.5876 59.9746 15.4276 58.0846 16.0476L50.9546 18.3976C54.7046 29.7976 65.1446 29.5176 69.8946 27.9576L67.5446 20.8376ZM15.3346 30.1076L5.76456 49.0376C10.5146 47.4776 19.0846 41.5076 15.3346 30.1076ZM15.3346 30.1076L8.20456 32.4476C6.31456 33.0676 4.75456 34.4176 3.85456 36.1976C2.95456 37.9676 2.80456 40.0276 3.42456 41.9176L5.76456 49.0376C10.5146 47.4776 19.0846 41.5076 15.3346 30.1076Z" fill="#B6C0F3"/>
<path d="M65.0146 61.1376L29.3846 72.8576M65.0146 61.1376C64.9646 60.9776 64.9146 60.8176 64.8746 60.6676C61.5046 49.5776 69.8946 43.7476 74.5746 42.2076M65.0146 61.1376L72.1346 58.7976C73.0046 58.5076 73.8046 58.0776 74.5046 57.4976C75.3246 56.8476 76.0046 56.0176 76.4846 55.0576C77.3846 53.2776 77.5446 51.2176 76.9146 49.3276L74.5746 42.2076M29.3846 72.8576C29.3346 72.6976 29.2746 72.5376 29.2246 72.3876C25.3546 61.4676 15.1346 61.7476 10.4546 63.2876M29.3846 72.8576L22.2646 75.1976C21.3846 75.4876 20.4646 75.6076 19.5546 75.5676C18.5146 75.5176 17.4846 75.2476 16.5346 74.7676C14.7646 73.8676 13.4146 72.3076 12.7946 70.4176L10.4546 63.2876M74.5746 42.2076L69.8946 27.9576M69.8946 27.9576C65.1446 29.5176 54.7046 29.7976 50.9546 18.3976M69.8946 27.9576L67.5446 20.8376C66.9246 18.9476 65.5846 17.3776 63.8046 16.4776C62.0246 15.5876 59.9746 15.4276 58.0846 16.0476L50.9546 18.3976M50.9546 18.3976L49.7546 18.7976M10.4546 63.2876L5.76456 49.0376M18.2746 29.1376L15.3346 30.1076M15.3346 30.1076C19.0846 41.5076 10.5146 47.4776 5.76456 49.0376M15.3346 30.1076L8.20456 32.4476C6.31456 33.0676 4.75456 34.4176 3.85456 36.1976C2.95456 37.9676 2.80456 40.0276 3.42456 41.9176L5.76456 49.0376" stroke="#313B6B" stroke-width="5" stroke-linecap="round" stroke-linejoin="round"/>
<path d="M42.5154 52.7476C46.4454 51.4576 48.5954 47.2176 47.2954 43.2776C46.0054 39.3476 41.7654 37.1976 37.8254 38.4976C33.8954 39.7876 31.7454 44.0276 33.0454 47.9676C34.3354 51.8976 38.5754 54.0476 42.5154 52.7476Z" fill="#B6C0F3" stroke="#313B6B" stroke-width="5" stroke-linecap="round" stroke-linejoin="round"/>
<path d="M22.6048 10.3275C24.7648 8.1675 25.1048 6.1775 26.6748 4.1775C27.9048 2.6075 30.2348 2.6075 31.4648 4.1775C33.0348 6.1775 33.3748 8.1675 35.5348 10.3275C37.6948 12.4875 39.6848 12.8275 41.6848 14.3975C43.2548 15.6275 43.2548 17.9575 41.6848 19.1875C39.6848 20.7575 37.6948 21.0975 35.5348 23.2575C33.3748 25.4175 33.0348 27.4075 31.4648 29.4075C30.2348 30.9775 27.9048 30.9775 26.6748 29.4075C25.1048 27.4075 24.7648 25.4175 22.6048 23.2575C20.4448 21.0975 18.4548 20.7575 16.4548 19.1875C14.8848 17.9575 14.8848 15.6275 16.4548 14.3975C18.4548 12.8275 20.4448 12.4875 22.6048 10.3275Z" fill="white" stroke="#313B6B" stroke-width="5" stroke-linecap="round" stroke-linejoin="round"/>
</svg>
